<?xml version="1.0" encoding="utf-8"?>
<!-- Generator: Adobe Illustrator 25.3.0, SVG Export Plug-In . SVG Version: 6.00 Build 0)  -->
<svg version="1.1" id="Calque_1" xmlns="http://www.w3.org/2000/svg" xmlns:xlink="http://www.w3.org/1999/xlink" x="0px" y="0px"
	 viewBox="0 0 374.24 363.64" style="enable-background:new 0 0 374.24 363.64;" xml:space="preserve">
<style type="text/css">
	.st0{fill:#ea4336;}
</style>
<g>
	<path class="st0" d="M357.79,182.85c0,94.56-76.65,171.21-171.21,171.21S15.37,277.41,15.37,182.85c0-1.96,0.03-3.91,0.11-5.85
		h38.05c-0.08,1.85-0.12,3.71-0.12,5.58c0,73.43,59.53,132.95,132.96,132.95s132.95-59.52,132.95-132.95c0-1.87-0.04-3.73-0.12-5.58
		h38.48C357.76,178.94,357.79,180.89,357.79,182.85z"/>
</g>
<g>
	<path class="st0" d="M352.12,139.02h-40.11c-18.03-52.04-67.47-89.4-125.64-89.4c-58.17,0-107.62,37.36-125.65,89.4H21.04
		C40.39,65.69,107.17,11.64,186.58,11.64S332.77,65.69,352.12,139.02z"/>
</g>
<g>
	<path class="st0" d="M207.58,182.58c0,11.71-9.5,21.21-21.21,21.21c-11.72,0-21.21-9.5-21.21-21.21c0-1.93,0.26-3.8,0.75-5.58
		h40.92C207.32,178.78,207.58,180.65,207.58,182.58z"/>
</g>
</svg>
